<svg version="1.1" id="Layer_1" xmlns:x="ns_extend;" xmlns:i="ns_ai;" xmlns:graph="ns_graphs;" xmlns="http://www.w3.org/2000/svg" xmlns:xlink="http://www.w3.org/1999/xlink" x="0px" y="0px" viewBox="0 0 68 68" style="enable-background:new 0 0 68 68;" xml:space="preserve">
 <style type="text/css">
  .st0{fill:#B5B9BC;}
 </style>
 <metadata>
  <sfw xmlns="ns_sfw;">
   <slices>
   </slices>
   <sliceSourceBounds bottomLeftOrigin="true" height="68" width="68" x="195" y="0">
   </sliceSourceBounds>
  </sfw>
 </metadata>
 <g>
  <path class="st0" d="M34,0L0,34l34,34l34-34L34,0z M62.6,34L48.8,47.8c0.3-0.7,0.5-1.5,0.5-2.3c0-2.6-1.8-4.9-5.3-5.6l-2.5-0.5
		c-1.3-0.2-1.8-0.9-1.8-1.8c0-1,1-2,2.5-2c2.2,0,2.9,1.4,3.1,2.2l3.6-1.5c-0.6-2.1-2.4-4.4-6.6-4.4c-1.6,0-3,0.5-4.2,1.3
		c1.4-1.9,2.9-3.8,4.5-5.4c4.7-4.7,7.3-6.1,7.9-6.3L62.6,34z M47.4,18.8c-0.5,0.3-3.2,1.7-7.9,6.3c-2.4,2.4-4.5,5.4-6.6,8.4
		l-2.3-4.7c1.9-1.1,2.7-3.2,2.7-5.2c0-3.3-2.3-5.8-6-5.8h-5.7L34,5.4L47.4,18.8L47.4,18.8z M29.1,23.7c0,1.3-0.9,2.2-2.6,2.2h-2.4
		v-4.5h2.4C28.2,21.4,29.1,22.3,29.1,23.7z M5.4,34l14.5-14.5v16.9H24v-6.9h2.5l3.7,7.7c-1.1,1.4-2.2,2.7-3.4,3.9
		c-4.7,4.7-7.5,6.1-8,6.3L5.4,34z M21.8,50.3c0.4-0.2,3.3-1.6,8-6.3c2.3-2.3,4.2-4.9,6.1-7.5c-0.1,0.5-0.2,1-0.2,1.6
		c0,2.7,1.9,4.8,5,5.4l2.5,0.5c1.2,0.2,2,0.9,2,1.9c0,1.1-1,1.9-2.6,1.9c-2.5,0-3.6-1.4-3.8-3.1l-3.7,1.5c0.6,2.5,2.8,5.2,7.4,5.2
		c1.4,0,2.5-0.3,3.5-0.8L34.1,62.5C34.1,62.5,21.8,50.3,21.8,50.3z">
  </path>
 </g>
</svg>